<svg width="24" height="23" viewBox="0 0 24 23" fill="none" xmlns="http://www.w3.org/2000/svg">
<path d="M0.00292864 21.6193C0.00402462 21.666 0.0133329 21.7121 0.0304267 21.7555C0.0328272 21.7614 0.036428 21.7661 0.0390966 21.7719C0.0481946 21.7934 0.0591728 21.8141 0.0719038 21.8337C0.0829104 21.8478 0.0948633 21.8612 0.10768 21.8736C0.113637 21.8801 0.118642 21.8869 0.125016 21.893C0.157192 21.9236 0.19428 21.9486 0.234732 21.9669C0.243134 21.9708 0.251679 21.9734 0.260373 21.9766C0.304855 21.9944 0.352194 22.004 0.400088 22.0048H3.60363L3.6047 22.005C3.60775 22.005 3.61059 22.0037 3.61364 22.0037C3.64832 22.0029 3.68275 21.9977 3.71606 21.988C3.7261 21.9851 3.73513 21.9802 3.74492 21.9765C3.75555 21.9725 3.76533 21.9682 3.77547 21.9633C3.78492 21.9588 3.79525 21.9566 3.80436 21.9513L6.58036 20.351C6.58405 20.3489 6.58596 20.3451 6.58956 20.3429C6.6311 20.3181 6.66773 20.2858 6.69762 20.2477C6.70167 20.2425 6.70333 20.2361 6.70709 20.2307C6.72716 20.2035 6.74366 20.1739 6.75618 20.1425L8.71891 14.8033H14.6976L17.2491 21.7429C17.2504 21.7463 17.2529 21.7487 17.2542 21.7521C17.2599 21.7637 17.2663 21.7751 17.2731 21.7861C17.2885 21.817 17.3079 21.8458 17.3309 21.8717C17.3413 21.8827 17.3524 21.8931 17.364 21.9028C17.3888 21.9244 17.4161 21.9428 17.4454 21.9576C17.458 21.9647 17.471 21.971 17.4843 21.9766C17.529 21.9945 17.5765 22.0042 17.6246 22.0051L17.6257 22.0048H20.8292C20.8629 22.0047 20.8964 22.0003 20.9289 21.9918C20.9388 21.9892 20.9478 21.9843 20.9575 21.981C20.9798 21.9739 21.0014 21.9649 21.0221 21.9541L21.0289 21.9513L23.8049 20.351C23.8168 20.3417 23.8281 20.3317 23.8389 20.321C23.9237 20.2607 23.98 20.1682 23.9946 20.0651C23.9988 20.0406 24.0005 20.0157 23.9999 19.9908C23.9986 19.9639 23.9944 19.9372 23.9876 19.9111C23.9862 19.8961 23.9839 19.8811 23.9807 19.8663L16.7705 0.26197C16.7683 0.255968 16.7639 0.251495 16.7615 0.245682C16.751 0.219364 16.7378 0.194239 16.722 0.170738L16.7164 0.164364C16.7081 0.154024 16.6992 0.144113 16.6899 0.13467C16.6806 0.122868 16.6705 0.111624 16.6599 0.100994C16.6554 0.0969654 16.6491 0.095305 16.6444 0.0914961C16.6204 0.0725808 16.5943 0.0565265 16.5665 0.0436576C16.5545 0.0368811 16.5421 0.0307667 16.5294 0.0253416C16.489 0.0105309 16.4464 0.00240662 16.4034 0.00128828L16.3966 0H10.3855C10.3382 0.000987334 10.2914 0.0104315 10.2474 0.0278861C10.2363 0.0320111 10.2259 0.036116 10.2153 0.0411931C10.2055 0.0458101 10.1949 0.0481026 10.1854 0.0535238L7.41023 1.65388C7.40529 1.65673 7.40217 1.6614 7.39743 1.66443C7.38055 1.67584 7.36459 1.68855 7.34969 1.70243C7.33972 1.71115 7.32932 1.71838 7.32026 1.72804C7.31426 1.73446 7.3082 1.74037 7.30266 1.74714C7.28811 1.76645 7.27536 1.78705 7.26456 1.80867C7.25992 1.81708 7.25345 1.82443 7.24942 1.83314C7.2472 1.83788 7.24334 1.84142 7.24132 1.84626C7.24015 1.84906 7.24 1.85214 7.23892 1.85498C7.23787 1.85764 7.23584 1.85964 7.23484 1.86233L0.0246614 21.4666C0.0106575 21.5068 0.00325193 21.549 0.0027326 21.5915C0.00251655 21.5962 0 21.6 0 21.6048C0 21.6099 0.0027366 21.6142 0.00292864 21.6193ZM6.05519 19.7304L4.36104 20.707L6.53171 14.8033H7.86643L6.05519 19.7304ZM23.1134 19.8262L21.0408 21.021L14.1108 2.17873L16.1831 0.983641L23.1134 19.8262ZM10.4925 0.800176H14.8994L13.512 1.60035H9.10513L10.4925 0.800176ZM7.88963 2.40053H13.3397L20.2556 21.2047H17.9037L15.3522 14.2651C15.3511 14.2621 15.3486 14.2602 15.3474 14.2572C15.3344 14.2291 15.3181 14.2027 15.2989 14.1784C15.2884 14.1599 15.2766 14.1423 15.2634 14.1257C15.2225 14.0952 15.1807 14.066 15.138 14.0382C15.119 14.032 15.0995 14.0272 15.0798 14.0239C15.0492 14.0136 15.0174 14.0072 14.9851 14.0048C14.9822 14.0047 14.9797 14.0031 14.9767 14.0031H6.25255C6.24945 14.0031 6.24691 14.0048 6.24383 14.0048C6.21344 14.0073 6.18345 14.0134 6.15448 14.0229C6.13285 14.0264 6.11153 14.0316 6.09074 14.0386C6.04812 14.0664 6.00639 14.0956 5.96562 14.1261C5.95302 14.1421 5.94163 14.159 5.93156 14.1767C5.9118 14.2014 5.89513 14.2284 5.88192 14.2572C5.88074 14.2601 5.87818 14.262 5.87708 14.265L3.32553 21.2047H0.97365L7.88963 2.40053Z" fill="black"/>
<path d="M6.88387 11.6113C6.88639 11.6409 6.89229 11.6701 6.90145 11.6984C6.90498 11.7206 6.91035 11.7424 6.9175 11.7637C6.94521 11.8063 6.97427 11.8479 7.00465 11.8886C7.02141 11.9019 7.03919 11.9139 7.05783 11.9245C7.08183 11.9435 7.10799 11.9596 7.13578 11.9725C7.13878 11.9737 7.14071 11.9763 7.14378 11.9775C7.18805 11.9938 7.23488 12.0022 7.28209 12.0023L7.28335 12.0021H13.9463L13.9476 12.0023C13.9948 12.0022 14.0416 11.9938 14.0859 11.9775C14.089 11.9763 14.0909 11.9737 14.0939 11.9725C14.1217 11.9596 14.1479 11.9435 14.172 11.9244C14.1906 11.9139 14.2083 11.9019 14.225 11.8886C14.2554 11.8479 14.2845 11.8063 14.3122 11.7638C14.3194 11.7424 14.3248 11.7204 14.3283 11.698C14.3374 11.6699 14.3433 11.6408 14.3458 11.6113C14.3459 11.608 14.3477 11.6053 14.3477 11.602C14.3374 11.5563 14.3292 11.5102 14.3231 11.4638L11.8194 4.66234C11.8183 4.65934 11.8158 4.65748 11.8146 4.65451C11.8019 4.62707 11.786 4.60121 11.7673 4.57746C11.7564 4.55814 11.744 4.53975 11.7302 4.52247C11.6894 4.49209 11.6476 4.46302 11.6049 4.43529C11.5862 4.42925 11.567 4.42457 11.5476 4.42129C11.5168 4.41095 11.4849 4.4045 11.4525 4.40208C11.4495 4.40203 11.447 4.40039 11.4439 4.40039H9.78536C9.78206 4.40039 9.77936 4.4022 9.77608 4.40227C9.74732 4.40481 9.71894 4.41053 9.69144 4.41934C9.6683 4.42292 9.64551 4.42851 9.62334 4.43604C9.55482 4.4609 9.49799 4.51034 9.46388 4.57475C9.44435 4.59925 9.42785 4.62603 9.41475 4.6545C9.41357 4.65748 9.41099 4.65933 9.40988 4.66236L6.9066 11.4639C6.90053 11.5103 6.89232 11.5563 6.88199 11.602C6.88199 11.6053 6.8838 11.608 6.88387 11.6113ZM10.0644 5.20057H11.1649L11.2815 5.51734L9.73306 9.72532L8.05149 10.6698L10.0644 5.20057ZM12.7849 9.60154H10.6312L11.7079 6.67562L12.7849 9.60154ZM10.1628 10.4017H13.0795L13.374 11.2019H8.73848L10.1628 10.4017Z" fill="black"/>
</svg>
