<svg width="22" height="22" viewBox="0 0 22 22" fill="none" xmlns="http://www.w3.org/2000/svg">
<path d="M11.657 19.5393L0.901398 21.9834C0.47125 22.0846 -0.00248353 21.7073 9.79992e-06 21.2654V0.734546C-0.00243464 0.292712 0.47125 -0.0846275 0.901398 0.0165798L11.657 2.46073C11.9771 2.5361 12.2241 2.84989 12.2222 3.17871V6.60051C12.2277 6.98789 11.8764 7.34421 11.4889 7.34421C11.1014 7.34421 10.7501 6.98789 10.7556 6.60051V3.76683L1.46668 1.65875V20.3412L10.7556 18.2331V15.3995C10.7502 15.0121 11.1014 14.6558 11.4889 14.6558C11.8764 14.6558 12.2277 15.0121 12.2222 15.3995V18.8213C12.2189 19.1663 11.9511 19.4709 11.657 19.5393Z" fill="black"/>
<path d="M21.5111 11.0015C21.5043 11.1763 21.4323 11.3783 21.3125 11.5057L17.4014 15.6614C17.1364 15.8996 16.6282 15.9979 16.332 15.7225C16.0402 15.4513 16.0489 14.9253 16.3395 14.653L19.0895 11.7348H3.66668C3.26169 11.7348 2.93335 11.4065 2.93335 11.0015C2.93335 10.5965 3.26169 10.2681 3.66668 10.2681H19.0895L16.3395 7.34994C16.0893 7.09926 16.0431 6.55477 16.332 6.28045C16.6208 6.00616 17.1473 6.09378 17.4014 6.34158L21.3125 10.4973C21.4464 10.6395 21.5116 10.8064 21.5111 11.0015Z" fill="black"/>
</svg>
