<svg width="16" height="21" viewBox="0 0 16 21" fill="none" xmlns="http://www.w3.org/2000/svg">
<path fill-rule="evenodd" clip-rule="evenodd" d="M12.9267 18.1463C12.9165 18.3927 12.6973 18.6023 12.4493 18.6023H3.29119C3.04324 18.6023 2.82395 18.3921 2.81371 18.1463L2.2889 5.55092C2.27245 5.15612 1.93906 4.8494 1.54426 4.86585C1.14946 4.8823 0.84274 5.21569 0.85919 5.61049L1.384 18.2059C1.42618 19.2182 2.27625 20.0333 3.29119 20.0333H12.4493C13.4636 20.0333 14.3142 19.2195 14.3564 18.2059L14.8813 5.61049C14.8977 5.21569 14.591 4.8823 14.1962 4.86585C13.8014 4.8494 13.468 5.15612 13.4515 5.55092L12.9267 18.1463ZM7.29784 16.4559C7.29784 16.772 7.55411 17.0283 7.87022 17.0283C8.18634 17.0283 8.4426 16.772 8.4426 16.4559V6.72546C8.4426 6.40935 8.18634 6.15308 7.87022 6.15308C7.55411 6.15308 7.29784 6.40935 7.29784 6.72546V16.4559ZM4.43619 16.4728C4.44549 16.7887 4.70917 17.0373 5.02515 17.0281C5.34113 17.0188 5.58975 16.7551 5.58046 16.4391L5.29427 6.70864C5.28497 6.39266 5.02129 6.14404 4.70531 6.15333C4.38933 6.16263 4.14071 6.42631 4.15 6.74229L4.43619 16.4728ZM10.16 16.4391C10.1507 16.7551 10.3993 17.0188 10.7153 17.0281C11.0313 17.0373 11.295 16.7887 11.3043 16.4728L11.5904 6.74229C11.5997 6.42631 11.3511 6.16263 11.0351 6.15333C10.7192 6.14404 10.4555 6.39266 10.4462 6.70864L10.16 16.4391ZM11.3945 2.43261L11.1221 1.47951C10.8827 0.64159 10.0319 0 9.16051 0H6.57994C5.70867 0 4.85764 0.64182 4.6183 1.47951L4.34599 2.43261H0.715475C0.320329 2.43261 0 2.75294 0 3.14809C0 3.54324 0.320329 3.86356 0.715475 3.86356H15.025C15.4201 3.86356 15.7404 3.54324 15.7404 3.14809C15.7404 2.75294 15.4201 2.43261 15.025 2.43261H11.3945ZM9.16051 1.43095H6.57994C6.34751 1.43095 6.05801 1.64929 5.9942 1.87262L5.8342 2.43261H9.90625L9.74625 1.87262C9.68239 1.6491 9.39308 1.43095 9.16051 1.43095Z" fill="black"/>
</svg>
