<svg width="24" height="24" viewBox="0 0 24 24" fill="none" xmlns="http://www.w3.org/2000/svg">
<path d="M0 0V24.0002H24.0002V0H0ZM23.4785 2.93481H21.0654V0.521743H23.4785V2.93481ZM12.261 8.80442V6.39136H14.674V8.80442H12.261ZM14.674 9.32616V11.7392H12.261V9.32616H14.674ZM11.7392 8.80442H9.32616V6.39136H11.7392V8.80442ZM11.7392 9.32616V11.7392H9.32616V9.32616H11.7392ZM8.80442 11.7392H6.39136V9.32616H8.80442V11.7392ZM8.80442 12.261V14.674H6.39136V12.261H8.80442ZM9.32616 12.261H11.7392V14.674H9.32616V12.261ZM11.7392 15.1958V17.6088H9.32616V15.1958H11.7392ZM12.261 15.1958H14.674V17.6088H12.261V15.1958ZM12.261 14.674V12.261H14.674V14.674H12.261ZM15.1958 12.261H17.6088V14.674H15.1958V12.261ZM15.1958 11.7392V9.32616H17.6088V11.7392H15.1958ZM15.1958 8.80442V6.39136H17.6088V8.80442H15.1958ZM15.1958 5.86961V3.45655H17.6088V5.86961H15.1958ZM14.674 5.86961H12.261V3.45655H14.674V5.86961ZM11.7392 5.86961H9.32616V3.45655H11.7392V5.86961ZM8.80442 5.86961H6.39136V3.45655H8.80442V5.86961ZM8.80442 6.39136V8.80442H6.39136V6.39136H8.80442ZM5.86961 8.80442H3.45655V6.39136H5.86961V8.80442ZM5.86961 9.32616V11.7392H3.45655V9.32616H5.86961ZM5.86961 12.261V14.674H3.45655V12.261H5.86961ZM5.86961 15.1958V17.6088H3.45655V15.1958H5.86961ZM6.39136 15.1958H8.80442V17.6088H6.39136V15.1958ZM8.80442 18.1306V20.5436H6.39136V18.1306H8.80442ZM9.32616 18.1306H11.7392V20.5436H9.32616V18.1306ZM12.261 18.1306H14.674V20.5436H12.261V18.1306ZM15.1958 18.1306H17.6088V20.5436H15.1958V18.1306ZM15.1958 17.6088V15.1958H17.6088V17.6088H15.1958ZM18.1306 15.1958H20.5436V17.6088H18.1306V15.1958ZM18.1306 14.674V12.261H20.5436V14.674H18.1306ZM18.1306 11.7392V9.32616H20.5436V11.7392H18.1306ZM18.1306 8.80442V6.39136H20.5436V8.80442H18.1306ZM18.1306 5.86961V3.45655H20.5436V5.86961H18.1306ZM18.1306 2.93481V0.521743H20.5436V2.93481H18.1306ZM17.6088 2.93481H15.1958V0.521743H17.6088V2.93481ZM14.674 2.93481H12.261V0.521743H14.674V2.93481ZM11.7392 2.93481H9.32616V0.521743H11.7392V2.93481ZM8.80442 2.93481H6.39136V0.521743H8.80442V2.93481ZM5.86961 2.93481H3.45655V0.521743H5.86961V2.93481ZM5.86961 3.45655V5.86961H3.45655V3.45655H5.86961ZM2.93481 5.86961H0.521743V3.45655H2.93481V5.86961ZM2.93481 6.39136V8.80442H0.521743V6.39136H2.93481ZM2.93481 9.32616V11.7392H0.521743V9.32616H2.93481ZM2.93481 12.261V14.674H0.521743V12.261H2.93481ZM2.93481 15.1958V17.6088H0.521743V15.1958H2.93481ZM2.93481 18.1306V20.5436H0.521743V18.1306H2.93481ZM3.45655 18.1306H5.86961V20.5436H3.45655V18.1306ZM5.86961 21.0654V23.4785H3.45655V21.0654H5.86961ZM6.39136 21.0654H8.80442V23.4785H6.39136V21.0654ZM9.32616 21.0654H11.7392V23.4785H9.32616V21.0654ZM12.261 21.0654H14.674V23.4785H12.261V21.0654ZM15.1958 21.0654H17.6088V23.4785H15.1958V21.0654ZM18.1306 21.0654H20.5436V23.4785H18.1306V21.0654ZM18.1306 20.5436V18.1306H20.5436V20.5436H18.1306ZM21.0654 18.1306H23.4785V20.5436H21.0654V18.1306ZM21.0654 17.6088V15.1958H23.4785V17.6088H21.0654ZM21.0654 14.674V12.261H23.4785V14.674H21.0654ZM21.0654 11.7392V9.32616H23.4785V11.7392H21.0654ZM21.0654 8.80442V6.39136H23.4785V8.80442H21.0654ZM21.0654 5.86961V3.45655H23.4785V5.86961H21.0654ZM2.93481 0.521743V2.93481H0.521743V0.521743H2.93481ZM0.521743 21.0654H2.93481V23.4785H0.521743V21.0654ZM21.0654 23.4785V21.0654H23.4785V23.4785H21.0654Z" fill="black"/>
</svg>
