<svg width="22" height="22" viewBox="0 0 22 22" fill="none" xmlns="http://www.w3.org/2000/svg">
<path d="M11 13.2C10.9362 13.2 10.872 13.1831 10.8148 13.1498L0.1815 6.9234C0.0693 6.8574 0.000366667 6.73713 0 6.60697C0 6.47717 0.0689333 6.35653 0.181133 6.2909L10.8145 0.0506C10.9289 -0.0168667 11.0711 -0.0168667 11.1855 0.0506L21.8189 6.2909C21.9311 6.3569 22 6.47717 22 6.60697C22 6.73713 21.9311 6.85777 21.8185 6.9234L11.1852 13.1498C11.128 13.1831 11.0642 13.2 11 13.2ZM1.09157 6.6066L10.9996 12.4084L20.9081 6.6066L10.9996 0.792L1.09157 6.6066Z" fill="black"/>
<path d="M11 16.1328C10.9362 16.1328 10.872 16.116 10.8148 16.0826L0.1815 9.85622C0.0693 9.79022 0.000366667 9.66995 0 9.53979C0 9.40999 0.0689333 9.28935 0.181133 9.22372L2.6829 7.75559C2.7973 7.68812 2.9392 7.68849 3.05397 7.75522L11 12.4079L18.946 7.75522C19.0604 7.68849 19.2023 7.68812 19.3167 7.75559L21.8189 9.22372C21.9311 9.28972 22 9.40999 22 9.53979C22 9.66995 21.9311 9.79059 21.8185 9.85622L11.1852 16.0826C11.128 16.116 11.0642 16.1328 11 16.1328ZM1.09157 9.53942L10.9996 15.3412L20.9077 9.53942L19.1308 8.49662L11.1848 13.1493C11.0704 13.216 10.9285 13.216 10.8141 13.1493L2.86843 8.49662L1.09157 9.53942Z" fill="black"/>
<path d="M11 19.0664C10.9362 19.0664 10.872 19.0495 10.8148 19.0162L0.1815 12.7898C0.0693 12.7238 0.000366667 12.6035 0 12.4734C0 12.3436 0.0689333 12.2229 0.181133 12.1573L2.6829 10.6892C2.7973 10.6217 2.9392 10.6221 3.05397 10.6888L11 15.3414L18.946 10.6888C19.0604 10.6221 19.2023 10.6217 19.3167 10.6892L21.8189 12.1573C21.9311 12.2233 22 12.3436 22 12.4734C22 12.6035 21.9311 12.7242 21.8185 12.7898L11.1852 19.0162C11.128 19.0495 11.0642 19.0664 11 19.0664ZM1.09157 12.473L10.9996 18.2748L20.9077 12.473L19.1308 11.4302L11.1848 16.0828C11.0704 16.1496 10.9285 16.1496 10.8141 16.0828L2.86843 11.4302L1.09157 12.473Z" fill="black"/>
<path d="M10.2986 21.5891C10.2355 21.5891 10.1717 21.573 10.1138 21.5389L9.48092 21.1682C9.30602 21.0659 9.24736 20.8411 9.35002 20.6666C9.45269 20.4917 9.67709 20.433 9.85162 20.5353L10.4845 20.906C10.6594 21.0083 10.7181 21.2331 10.6154 21.4076C10.5468 21.5242 10.4244 21.5891 10.2986 21.5891ZM11.8811 21.4842C11.7554 21.4842 11.6325 21.4193 11.5643 21.3027C11.462 21.1278 11.5207 20.9034 11.6952 20.8011L12.3281 20.4304C12.503 20.3285 12.7274 20.3868 12.8297 20.5617C12.932 20.7366 12.8733 20.961 12.6988 21.0633L12.0659 21.434C12.008 21.4681 11.9442 21.4842 11.8811 21.4842ZM8.08356 20.2922C8.02049 20.2922 7.95669 20.2761 7.89876 20.242L7.26589 19.8713C7.09099 19.769 7.03232 19.5442 7.13462 19.3697C7.23692 19.1944 7.46169 19.1365 7.63659 19.2384L8.26946 19.6091C8.44436 19.7114 8.50302 19.9362 8.40036 20.1107C8.33216 20.2273 8.20932 20.2922 8.08356 20.2922ZM14.0962 20.187C13.97 20.187 13.8476 20.1221 13.7794 20.0055C13.6771 19.8306 13.7357 19.6062 13.9106 19.5039L14.5435 19.1335C14.7188 19.0316 14.9428 19.0903 15.0451 19.2648C15.1474 19.4397 15.0887 19.6641 14.9138 19.7664L14.281 20.1367C14.2227 20.1708 14.1589 20.187 14.0962 20.187ZM5.86852 18.9953C5.80582 18.9953 5.74202 18.9792 5.68372 18.9451L5.05086 18.5744C4.87596 18.4721 4.81729 18.2473 4.91996 18.0728C5.02226 17.8975 5.24666 17.8392 5.42156 17.9415L6.05442 18.3122C6.22932 18.4145 6.28799 18.6393 6.18532 18.8138C6.11712 18.9304 5.99466 18.9953 5.86852 18.9953ZM16.3108 18.8901C16.1847 18.8901 16.0622 18.8252 15.994 18.7086C15.8917 18.5337 15.9504 18.3093 16.1253 18.207L16.7582 17.8366C16.9331 17.7347 17.1575 17.7934 17.2598 17.9679C17.3621 18.1428 17.3034 18.3672 17.1285 18.4695L16.4956 18.8398C16.4373 18.8739 16.3739 18.8901 16.3108 18.8901ZM3.65386 17.6984C3.59116 17.6984 3.52736 17.6823 3.46906 17.6482L2.83619 17.2775C2.66129 17.1752 2.60262 16.9504 2.70529 16.7759C2.80759 16.6006 3.03236 16.5427 3.20689 16.6446L3.83976 17.0153C4.01466 17.1176 4.07332 17.3424 3.97066 17.5169C3.90209 17.6335 3.77962 17.6984 3.65386 17.6984ZM18.5259 17.5932C18.3997 17.5932 18.2773 17.5283 18.2091 17.4117C18.1068 17.2368 18.1654 17.0124 18.3403 16.9101L18.9732 16.5397C19.1481 16.4378 19.3729 16.4965 19.4748 16.671C19.5771 16.8459 19.5184 17.0703 19.3435 17.1726L18.7107 17.5429C18.6524 17.577 18.5886 17.5932 18.5259 17.5932ZM1.43882 16.4015C1.37612 16.4015 1.31232 16.3854 1.25402 16.3513L0.621157 15.9806C0.446257 15.8783 0.38759 15.6535 0.490257 15.479C0.592557 15.3041 0.816957 15.2454 0.991857 15.3477L1.62472 15.7184C1.79962 15.8207 1.85829 16.0455 1.75562 16.22C1.68742 16.3366 1.56496 16.4015 1.43882 16.4015ZM20.7409 16.2959C20.6148 16.2959 20.4923 16.231 20.4241 16.1144C20.3218 15.9395 20.3805 15.7151 20.555 15.6128L21.1879 15.2421C21.3631 15.1398 21.5872 15.1985 21.6895 15.3734C21.7918 15.5483 21.7331 15.7727 21.5586 15.875L20.9257 16.2457C20.8674 16.2801 20.8036 16.2959 20.7409 16.2959ZM1.50886 15.1035C1.38309 15.1035 1.26026 15.0386 1.19206 14.9224C1.08976 14.7475 1.14806 14.5231 1.32296 14.4208L1.95546 14.0497C2.12999 13.9467 2.35476 14.0057 2.45706 14.1802C2.55972 14.3551 2.50106 14.5795 2.32652 14.6818L1.69402 15.0529C1.63536 15.0874 1.57156 15.1035 1.50886 15.1035ZM20.3119 14.9979C20.2488 14.9979 20.185 14.9818 20.1267 14.9473L19.4942 14.5759C19.3197 14.4736 19.261 14.2484 19.3637 14.0743C19.4664 13.8994 19.6908 13.84 19.8657 13.9437L20.4982 14.3152C20.6727 14.4175 20.7314 14.6426 20.6287 14.8168C20.5601 14.9334 20.4377 14.9979 20.3119 14.9979Z" fill="black"/>
</svg>
