<svg width="22" height="22" viewBox="0 0 22 22" fill="none" xmlns="http://www.w3.org/2000/svg">
<path d="M11.1096 0.218922C11.0622 0.218922 11.0126 0.250102 10.9695 0.310393L8.83781 3.99247C8.76891 4.11305 8.81852 4.21865 8.95633 4.21865H10.4205V10.42H4.21915V8.97202C4.21915 8.83421 4.11356 8.76737 3.99297 8.8535L0.310896 10.969C0.190313 11.0552 0.190313 11.1628 0.310896 11.249L3.99297 13.4022C4.11356 13.4711 4.21915 13.4162 4.21915 13.2784V11.798H10.4205V17.9994H8.97252C8.83471 17.9994 8.76788 18.1048 8.85401 18.2255L11.0073 21.9076C11.0589 22.0282 11.1633 22.0282 11.2495 21.9076L13.4027 18.2255C13.4716 18.1049 13.4167 17.9994 13.2789 17.9994H11.7985V11.798H17.9999V13.246C17.9999 13.3838 18.1053 13.4506 18.226 13.3645L20.9069 11.798H20.9285V11.7818L21.9083 11.2111C22.0289 11.1594 22.0289 11.055 21.9083 10.9689L18.2262 8.81561C18.1056 8.7467 18 8.80165 18 8.93946V10.4199H11.7986V4.21848H13.2629C13.4007 4.21848 13.4675 4.11288 13.3814 3.9923L11.2496 0.310221C11.2066 0.249929 11.1571 0.21875 11.1096 0.21875V0.218922Z" fill="black"/>
</svg>

