<svg width="32" height="26" viewBox="0 0 32 26" fill="none" xmlns="http://www.w3.org/2000/svg">
<path fill-rule="evenodd" clip-rule="evenodd" d="M14.4 8.5332H1.59998C1.30505 8.5332 1.06665 8.7716 1.06665 9.06654V21.8665C1.06665 22.1615 1.30505 22.3999 1.59998 22.3999H14.4C14.6949 22.3999 14.9333 22.1615 14.9333 21.8665V9.06654C14.9333 8.7716 14.6949 8.5332 14.4 8.5332Z" fill="black"/>
<path fill-rule="evenodd" clip-rule="evenodd" d="M31.4667 1.06667C31.7616 1.06667 32 0.828267 32 0.533333C32 0.2384 31.7616 0 31.4667 0C31.1717 0 30.9333 0.2384 30.9333 0.533333C30.9333 0.828267 31.1717 1.06667 31.4667 1.06667Z" fill="black"/>
<path fill-rule="evenodd" clip-rule="evenodd" d="M31.4667 14.9336C31.1717 14.9336 30.9333 15.172 30.9333 15.4669C30.9333 15.7619 31.1717 16.0003 31.4667 16.0003C31.7616 16.0003 32 15.7619 32 15.4669C32 15.172 31.7616 14.9336 31.4667 14.9336Z" fill="black"/>
<path fill-rule="evenodd" clip-rule="evenodd" d="M0.533333 22.4004C0.2384 22.4004 0 22.6388 0 22.9337C0 23.2287 0.2384 23.4671 0.533333 23.4671C0.828267 23.4671 1.06667 23.2287 1.06667 22.9337C1.06667 22.6388 0.828267 22.4004 0.533333 22.4004Z" fill="black"/>
<path fill-rule="evenodd" clip-rule="evenodd" d="M0.533333 8.53346C0.828267 8.53346 1.06667 8.29506 1.06667 8.00013C1.06667 7.7052 0.828267 7.4668 0.533333 7.4668C0.2384 7.4668 0 7.7052 0 8.00013C0 8.29506 0.2384 8.53346 0.533333 8.53346Z" fill="black"/>
<path fill-rule="evenodd" clip-rule="evenodd" d="M16.5335 1.06667C16.8284 1.06667 17.0668 0.828267 17.0668 0.533333C17.0668 0.2384 16.8284 0 16.5335 0C16.2385 0 16.0001 0.2384 16.0001 0.533333C16.0001 0.828267 16.2385 1.06667 16.5335 1.06667Z" fill="black"/>
<path fill-rule="evenodd" clip-rule="evenodd" d="M19.8625 18.6824C19.6348 18.6253 19.3964 18.724 19.2759 18.9251L17.0668 22.6072V11.0413L17.1948 11.1907L20.2423 14.7464C20.2428 14.7469 20.2433 14.7469 20.2433 14.7475L24.6396 19.876L19.8625 18.6824ZM30.9335 1.59974C30.9335 1.30481 30.6951 1.06641 30.4001 1.06641H17.6001C17.3052 1.06641 17.0668 1.30481 17.0668 1.59974V9.40294L16.9383 9.25254C16.7927 9.08241 16.558 9.02107 16.3484 9.09947C16.1393 9.17681 16.0001 9.37627 16.0001 9.59974V24.5331C16.0001 24.7725 16.1601 24.9827 16.3911 25.0472C16.438 25.06 16.486 25.0664 16.5335 25.0664C16.7175 25.0664 16.8929 24.9709 16.9905 24.8072L19.9873 19.8125L26.0044 21.3165C26.2289 21.3747 26.4657 21.2771 26.5868 21.0797C26.7089 20.8824 26.6897 20.6285 26.5383 20.4525L21.8071 14.9331H30.4001C30.6951 14.9331 30.9335 14.6941 30.9335 14.3997V1.59974Z" fill="black"/>
</svg>
