<svg width="31" height="27" viewBox="0 0 31 27" fill="none" xmlns="http://www.w3.org/2000/svg">
<path d="M3.30908 27H27.2575C27.6927 26.9996 28.1236 26.9134 28.5255 26.7464C28.9274 26.5793 29.2924 26.3347 29.5997 26.0265C29.907 25.7184 30.1506 25.3526 30.3165 24.9502C30.4824 24.5479 30.5674 24.1167 30.5665 23.6815V3.2086C30.5678 2.78795 30.486 2.37119 30.326 1.98216C30.166 1.59314 29.9308 1.23949 29.634 0.941458C29.3371 0.643429 28.9844 0.406871 28.596 0.245323C28.2076 0.0837759 27.7911 0.000410992 27.3705 6.4312e-09H25.5464C25.3382 6.4312e-09 25.1386 0.0826929 24.9914 0.229887C24.8442 0.377081 24.7615 0.57672 24.7615 0.784884V3.51628H5.80501V0.797442C5.80668 0.693318 5.78761 0.589903 5.74891 0.493222C5.71021 0.396541 5.65266 0.308528 5.57961 0.234309C5.50656 0.160091 5.41948 0.101151 5.32342 0.060924C5.22737 0.0206969 5.12427 -1.33241e-05 5.02013 6.4312e-09H3.19606C2.77541 0.000410992 2.35897 0.0837759 1.97057 0.245323C1.58217 0.406871 1.22945 0.643429 0.932589 0.941458C0.635726 1.23949 0.400553 1.59314 0.24053 1.98216C0.0805065 2.37119 -0.00122476 2.78795 1.38702e-05 3.2086V23.6815C-0.000811406 24.1167 0.0841483 24.5479 0.250037 24.9502C0.415925 25.3526 0.659489 25.7184 0.966805 26.0265C1.27412 26.3347 1.63917 26.5793 2.04107 26.7464C2.44297 26.9134 2.87385 26.9996 3.30908 27ZM26.3313 1.56977H27.3705C27.8018 1.56977 28.2154 1.74111 28.5204 2.04609C28.8254 2.35108 28.9968 2.76473 28.9968 3.19605V20.8622C28.4737 20.5408 27.8714 20.3712 27.2575 20.3724H26.3156L26.3313 1.56977ZM1.56978 3.2086C1.56812 2.99398 1.60897 2.78116 1.68995 2.5824C1.77094 2.38364 1.89047 2.20287 2.04164 2.05052C2.19282 1.89818 2.37266 1.77726 2.5708 1.69475C2.76893 1.61224 2.98143 1.56976 3.19606 1.56977H4.23525V20.3724H3.29339C2.67941 20.3712 2.07719 20.5408 1.55408 20.8622L1.56978 3.2086ZM1.56978 23.4963C1.57936 23.4633 1.5867 23.4298 1.59176 23.3958C1.65756 22.9891 1.86638 22.6192 2.18063 22.3527C2.49488 22.0862 2.89392 21.9407 3.30594 21.9422H5.01699C5.22515 21.9422 5.42479 21.8595 5.57199 21.7123C5.71918 21.5651 5.80187 21.3655 5.80187 21.1573V5.08605H24.7615V21.1573C24.7615 21.3655 24.8442 21.5651 24.9914 21.7123C25.1386 21.8595 25.3382 21.9422 25.5464 21.9422H27.2575C27.6695 21.9407 28.0685 22.0862 28.3828 22.3527C28.697 22.6192 28.9058 22.9891 28.9716 23.3958C28.9767 23.4298 28.984 23.4633 28.9936 23.4963V23.6815C28.9949 23.9104 28.9509 24.1374 28.8642 24.3493C28.7776 24.5612 28.6499 24.7539 28.4886 24.9164C28.3273 25.0788 28.1356 25.2079 27.9243 25.296C27.713 25.3842 27.4864 25.4298 27.2575 25.4302H3.30908C3.08068 25.4302 2.8545 25.3852 2.64348 25.2978C2.43246 25.2104 2.24072 25.0823 2.07921 24.9208C1.9177 24.7593 1.78959 24.5676 1.70218 24.3565C1.61477 24.1455 1.56978 23.9193 1.56978 23.6909V23.4963Z" fill="black"/>
<path d="M8.91025 19.5153H12.4579C12.6661 19.5153 12.8657 19.4326 13.0129 19.2854C13.1601 19.1382 13.2428 18.9386 13.2428 18.7304V13.412H15.5033C15.7114 13.412 15.9111 13.3293 16.0583 13.1821C16.2055 13.0349 16.2882 12.8353 16.2882 12.6271V9.07004C16.2882 8.86188 16.2055 8.66224 16.0583 8.51504C15.9111 8.36785 15.7114 8.28516 15.5033 8.28516H8.91025C8.70209 8.28516 8.50245 8.36785 8.35525 8.51504C8.20806 8.66224 8.12537 8.86188 8.12537 9.07004V18.7304C8.12537 18.9386 8.20806 19.1382 8.35525 19.2854C8.50245 19.4326 8.70209 19.5153 8.91025 19.5153ZM9.69513 9.85806H14.7184V11.8454H12.4579C12.2498 11.8454 12.0501 11.9281 11.9029 12.0753C11.7557 12.2225 11.673 12.4221 11.673 12.6303V17.9455H9.69513V9.85806Z" fill="black"/>
<path d="M11.9109 21.2608C11.8003 21.3699 11.7246 21.5093 11.6933 21.6614C11.6619 21.8135 11.6764 21.9714 11.7349 22.1153C11.7934 22.2591 11.8932 22.3824 12.0218 22.4695C12.1504 22.5566 12.3019 22.6036 12.4572 22.6046C12.5083 22.6091 12.5598 22.6091 12.611 22.6046C12.6665 22.5894 12.7201 22.5683 12.7711 22.5418C12.8177 22.5208 12.8628 22.4967 12.9061 22.4696C12.9486 22.4406 12.9885 22.408 13.0254 22.3722C13.1723 22.2246 13.2547 22.0248 13.2547 21.8165C13.2547 21.6083 13.1723 21.4085 13.0254 21.2608C12.8742 21.1196 12.6751 21.041 12.4682 21.041C12.2613 21.041 12.0621 21.1196 11.9109 21.2608Z" fill="black"/>
<path d="M18.592 22.603C19.0255 22.603 19.3769 22.2516 19.3769 21.8181C19.3769 21.3846 19.0255 21.0332 18.592 21.0332C18.1585 21.0332 17.8071 21.3846 17.8071 21.8181C17.8071 22.2516 18.1585 22.603 18.592 22.603Z" fill="black"/>
<path d="M15.5306 22.603C15.964 22.603 16.3154 22.2516 16.3154 21.8181C16.3154 21.3846 15.964 21.0332 15.5306 21.0332C15.0971 21.0332 14.7457 21.3846 14.7457 21.8181C14.7457 22.2516 15.0971 22.603 15.5306 22.603Z" fill="black"/>
<path d="M21.6563 19.5385C22.0898 19.5385 22.4412 19.1871 22.4412 18.7536C22.4412 18.3202 22.0898 17.9688 21.6563 17.9688C21.2228 17.9688 20.8714 18.3202 20.8714 18.7536C20.8714 19.1871 21.2228 19.5385 21.6563 19.5385Z" fill="black"/>
<path d="M21.6563 16.476C21.8118 16.476 21.9638 16.4298 22.093 16.3433C22.2222 16.2568 22.3228 16.1338 22.382 15.99C22.4412 15.8462 22.4564 15.6881 22.4256 15.5357C22.3948 15.3833 22.3194 15.2434 22.209 15.1339C22.0986 15.0244 21.9582 14.9501 21.8055 14.9206C21.6529 14.891 21.4949 14.9074 21.3516 14.9678C21.2083 15.0282 21.0861 15.1298 21.0006 15.2597C20.9152 15.3896 20.8702 15.5419 20.8714 15.6974C20.8731 15.9045 20.9565 16.1025 21.1035 16.2484C21.2505 16.3942 21.4492 16.476 21.6563 16.476Z" fill="black"/>
<path d="M18.592 13.4116C19.0255 13.4116 19.3769 13.0602 19.3769 12.6267C19.3769 12.1932 19.0255 11.8418 18.592 11.8418C18.1585 11.8418 17.8071 12.1932 17.8071 12.6267C17.8071 13.0602 18.1585 13.4116 18.592 13.4116Z" fill="black"/>
<path d="M21.6563 13.4116C21.8115 13.4116 21.9633 13.3655 22.0923 13.2793C22.2214 13.193 22.322 13.0705 22.3814 12.927C22.4408 12.7836 22.4564 12.6258 22.4261 12.4736C22.3958 12.3213 22.321 12.1815 22.2113 12.0717C22.1015 11.9619 21.9617 11.8872 21.8094 11.8569C21.6572 11.8266 21.4993 11.8421 21.3559 11.9015C21.2125 11.9609 21.0899 12.0615 21.0037 12.1906C20.9174 12.3197 20.8714 12.4714 20.8714 12.6267C20.8714 12.8348 20.9541 13.0345 21.1013 13.1817C21.2485 13.3289 21.4481 13.4116 21.6563 13.4116Z" fill="black"/>
<path d="M21.6563 22.6049C21.8115 22.6049 21.9633 22.5589 22.0923 22.4726C22.2214 22.3864 22.322 22.2638 22.3814 22.1204C22.4408 21.977 22.4564 21.8192 22.4261 21.6669C22.3958 21.5147 22.321 21.3748 22.2113 21.265C22.1015 21.1553 21.9617 21.0805 21.8094 21.0502C21.6572 21.02 21.4993 21.0355 21.3559 21.0949C21.2125 21.1543 21.0899 21.2549 21.0037 21.384C20.9174 21.5131 20.8714 21.6648 20.8714 21.82C20.8714 22.0282 20.9541 22.2278 21.1013 22.375C21.2485 22.5222 21.4481 22.6049 21.6563 22.6049Z" fill="black"/>
</svg>
