<svg width="32" height="32" viewBox="0 0 32 32" fill="none" xmlns="http://www.w3.org/2000/svg">
<path d="M28.98 17.6891C30.1578 16.511 30.1578 14.6017 28.98 13.4236C27.8857 12.3296 26.1619 12.2534 24.9777 13.1914L17.9211 6.13491C18.8592 4.95107 18.7831 3.22708 17.6892 2.13278C16.511 0.954987 14.6018 0.954987 13.4236 2.13278C12.3305 3.22621 12.2538 4.94813 13.1896 6.13214L6.13236 13.1894C4.94818 12.2537 3.22626 12.3305 2.13282 13.4236C0.955033 14.6017 0.955034 16.511 2.13282 17.6891C3.22471 18.7807 4.94368 18.8586 6.12752 17.9268L13.1861 24.9854C12.2543 26.1692 12.3321 27.888 13.4238 28.9801C14.6018 30.1577 16.511 30.1577 17.6892 28.9799C18.7816 27.8872 18.859 26.1663 17.9248 24.9825L24.9825 17.9247C26.1663 18.859 27.8872 18.7815 28.98 17.6891ZM26.8472 13.2499C27.4387 13.2502 28.0269 13.4744 28.4782 13.9254C28.9292 14.3767 29.1533 14.9649 29.1537 15.5563C29.1533 16.1478 28.9292 16.736 28.4782 17.1873C28.0269 17.6383 27.4387 17.8625 26.8472 17.8628C26.2609 17.8625 25.6782 17.6414 25.2283 17.1984L25.2186 17.1867L25.206 17.1765C24.762 16.7265 24.5407 16.1433 24.5405 15.5565C24.5409 14.965 24.7651 14.3768 25.216 13.9255C25.6675 13.4744 26.2557 13.2502 26.8472 13.2499ZM13.6867 24.4824L6.63016 17.4259C7.4951 16.3342 7.49631 14.7846 6.63379 13.6915L13.6915 6.63375C14.782 7.49436 16.327 7.4947 17.4181 6.63582L24.4768 13.6944C23.6172 14.7863 23.6184 16.3324 24.4802 17.4231L17.423 24.4803C16.3301 23.6163 14.7791 23.6171 13.6867 24.4824ZM13.9254 2.63455C14.3767 2.18359 14.9649 1.95941 15.5564 1.95906C16.1479 1.95941 16.7361 2.18359 17.1874 2.63455C17.6384 3.08586 17.8625 3.67406 17.8629 4.26555C17.8624 4.8458 17.6454 5.42225 17.2112 5.86993L17.1798 5.89551L17.1561 5.92438C16.7089 6.35563 16.1347 6.57135 15.5564 6.57169C14.9701 6.57135 14.3874 6.35027 13.9375 5.90726L13.9278 5.89551L13.9152 5.88531C13.4712 5.43539 13.2499 4.8522 13.2497 4.26538C13.2503 3.67406 13.4744 3.08586 13.9254 2.63455ZM4.2656 17.8628C3.67411 17.8625 3.08591 17.6383 2.6346 17.1873C2.18364 16.736 1.95946 16.1478 1.95911 15.5563C1.95946 14.9649 2.18364 14.3767 2.6346 13.9254C3.08591 13.4744 3.67411 13.2502 4.2656 13.2499C4.85709 13.2502 5.44529 13.4744 5.8966 13.9254C6.34756 14.3767 6.57174 14.9649 6.57209 15.5563C6.57157 16.1366 6.35464 16.713 5.92045 17.1607L5.88899 17.1863L5.86531 17.2152C5.41815 17.6464 4.84395 17.8625 4.2656 17.8628ZM17.1874 28.4781C16.7361 28.9291 16.1479 29.1533 15.5564 29.1536C14.9649 29.1533 14.3767 28.9291 13.9254 28.4781C13.4744 28.0268 13.2503 27.4386 13.2499 26.8471C13.2503 26.2557 13.4744 25.6675 13.9254 25.2162C14.3767 24.7652 14.9649 24.541 15.5564 24.5407C16.1479 24.541 16.7361 24.7652 17.1874 25.2162C17.6384 25.6675 17.8625 26.2557 17.8629 26.8471C17.8625 27.4386 17.6384 28.0268 17.1874 28.4781Z" fill="black"/>
</svg>
