<svg width="27" height="23" viewBox="0 0 27 23" fill="none" xmlns="http://www.w3.org/2000/svg">
<path d="M24.2463 13.0779L24.245 6.2008C24.2535 4.6175 23.5571 2.94766 22.4278 1.83421C21.3056 0.695935 19.6485 0.00134265 18.0822 0.00134265C18.0728 0.00134265 18.0639 0.00134265 18.0545 0.00134265L12.2441 0V1.47998L18.025 1.48088C18.0268 1.48088 18.0285 1.48088 18.0299 1.48088C19.2701 1.48088 20.4889 1.98784 21.3736 2.87252C22.2596 3.75854 22.7668 4.98 22.7655 6.22361L22.7668 13.0779H20.5202L23.5061 18.1164L26.4925 13.0779H24.2463Z" fill="black"/>
<path d="M8.46303 20.5204C7.22099 20.5204 6.00221 20.0132 5.11843 19.1279C4.2333 18.2437 3.72611 17.0224 3.72746 15.7786L3.72611 9.3819H5.97225L2.9859 4.34375L0 9.3819H2.24658L2.24792 15.8005C2.23943 17.3843 2.9358 19.0539 4.06469 20.1669C5.18731 21.3056 6.8444 22.0004 8.4107 22.0004C8.41965 22.0004 8.42904 22.0004 8.43844 22.0004L14.2488 22.0018V20.5218L8.46974 20.5204C8.46751 20.5204 8.46527 20.5204 8.46303 20.5204Z" fill="black"/>
</svg>
