<svg width="28" height="18" viewBox="0 0 28 18" fill="none" xmlns="http://www.w3.org/2000/svg">
<path d="M25.3406 5.78221L23.4448 2.36976L23.4132 2.33816C22.5601 0.88471 21.0119 0 19.3688 0C17.2834 0 15.514 1.35866 14.9137 3.25447H12.9863C12.3859 1.35866 10.6165 0 8.53113 0C6.8565 0 5.30826 0.88471 4.48674 2.33816L4.45515 2.36976L4.42355 2.40136L4.39195 2.43295L2.52774 5.78221C0.9795 6.98289 0 8.8787 0 10.9957C0 14.6609 2.9701 17.631 6.63532 17.631C9.795 17.631 12.4491 15.3876 13.1127 12.4175H14.7873C15.4508 15.3876 18.105 17.631 21.2646 17.631C24.9299 17.631 27.9 14.6609 27.9 10.9957C27.8684 8.8787 26.8889 7.01449 25.3406 5.78221ZM16.4935 10.9957C16.4935 8.37315 18.6105 6.25616 21.233 6.25616C23.8556 6.25616 25.9726 8.37315 25.9726 10.9957C25.9726 13.6182 23.8556 15.7352 21.233 15.7352C18.6105 15.7352 16.4935 13.6182 16.4935 10.9957ZM1.89581 10.9957C1.89581 8.37315 4.01279 6.25616 6.63532 6.25616C9.25786 6.25616 11.3748 8.37315 11.3748 10.9957C11.3748 13.6182 9.25786 15.7352 6.63532 15.7352C4.01279 15.7352 1.89581 13.6182 1.89581 10.9957Z" fill="black"/>
<path d="M6.73012 7.99478C6.98289 7.99478 7.20407 7.7736 7.20407 7.52083C7.20407 7.26805 6.98289 7.04688 6.73012 7.04688C4.54994 7.04688 2.78052 8.81629 2.78052 10.9965C2.78052 11.2492 3.0017 11.4704 3.25447 11.4704C3.50724 11.4704 3.72842 11.2492 3.72842 10.9965C3.72842 9.35344 5.08708 7.99478 6.73012 7.99478Z" fill="black"/>
<path d="M18.3578 10.9965C18.3578 9.35344 19.7164 7.99478 21.3594 7.99478C21.6122 7.99478 21.8334 7.7736 21.8334 7.52083C21.8334 7.26805 21.6122 7.04688 21.3594 7.04688C19.1793 7.04688 17.4099 8.81629 17.4099 10.9965C17.4099 11.2492 17.631 11.4704 17.8838 11.4704C18.1366 11.4704 18.3578 11.2492 18.3578 10.9965Z" fill="black"/>
</svg>
