<svg width="30" height="21" viewBox="0 0 30 21" fill="none" xmlns="http://www.w3.org/2000/svg">
<path d="M28.2692 12.9223H8.8846C8.43843 12.9223 8.0769 12.5608 8.0769 12.1146V8.88386C8.0769 8.43769 8.43843 8.07617 8.8846 8.07617H28.2692C28.7154 8.07617 29.0769 8.43769 29.0769 8.88386V12.1146C29.0769 12.5608 28.7154 12.9223 28.2692 12.9223Z" fill="black"/>
<path d="M28.2692 21.0005H8.8846C8.43843 21.0005 8.0769 20.6389 8.0769 20.1928V16.962C8.0769 16.5158 8.43843 16.1543 8.8846 16.1543H28.2692C28.7154 16.1543 29.0769 16.5158 29.0769 16.962V20.1928C29.0769 20.6389 28.7154 21.0005 28.2692 21.0005Z" fill="black"/>
<path d="M28.2692 4.84615H8.8846C8.43843 4.84615 8.0769 4.48463 8.0769 4.03846V0.807692C8.0769 0.361523 8.43843 0 8.8846 0H28.2692C28.7154 0 29.0769 0.361523 29.0769 0.807692V4.03846C29.0769 4.48463 28.7154 4.84615 28.2692 4.84615Z" fill="black"/>
<path d="M4.03846 4.84615H0.807692C0.361523 4.84615 0 4.48463 0 4.03846V0.807692C0 0.361846 0.361523 0 0.807692 0H4.03846C4.48463 0 4.84615 0.361846 4.84615 0.807692V4.03846C4.84615 4.48463 4.48463 4.84615 4.03846 4.84615Z" fill="black"/>
<path d="M4.03846 12.9223H0.807692C0.361523 12.9223 0 12.5608 0 12.1146V8.88386C0 8.43802 0.361523 8.07617 0.807692 8.07617H4.03846C4.48463 8.07617 4.84615 8.43802 4.84615 8.88386V12.1146C4.84615 12.5608 4.48463 12.9223 4.03846 12.9223Z" fill="black"/>
<path d="M4.03846 21.0005H0.807692C0.361523 21.0005 0 20.6389 0 20.1928V16.962C0 16.5158 0.361523 16.1543 0.807692 16.1543H4.03846C4.48463 16.1543 4.84615 16.5158 4.84615 16.962V20.1928C4.84615 20.6389 4.48463 21.0005 4.03846 21.0005Z" fill="black"/>
</svg>
