<svg width="22" height="22" viewBox="0 0 22 22" fill="none" xmlns="http://www.w3.org/2000/svg">
<path d="M22 3.0162C21.9998 1.35031 20.6497 0.000244444 18.9838 0C17.4365 0.000244444 16.1636 1.16527 15.9896 2.66591H6.01016C5.83636 1.16551 4.56353 0.000244444 3.0162 0C1.35031 0.000244444 0.000244444 1.35031 0 3.0162C0.000244444 4.56231 1.16356 5.83416 2.66249 6.00967V15.9901C1.16356 16.1658 0.000244444 17.4377 0 18.9838C0.000244444 20.6497 1.35031 21.9998 3.0162 22C4.56011 21.9998 5.83073 20.8394 6.00893 19.3434H15.9913C16.1695 20.8394 17.4399 21.9998 18.984 22C20.6497 21.9998 21.9998 20.6497 22 18.9838C21.9998 17.4387 20.8377 16.1671 19.34 15.9906V6.00942C20.8377 5.83293 21.9998 4.56133 22 3.0162ZM17.3529 1.38527C17.7714 0.967267 18.3458 0.709867 18.9838 0.709622C19.6218 0.709867 20.1962 0.967267 20.6147 1.38527C21.0327 1.80376 21.2901 2.3782 21.2904 3.0162C21.2901 3.6542 21.0327 4.22864 20.6147 4.64713C20.1999 5.06147 19.6316 5.31716 19.0002 5.32204L18.985 5.32058L18.9689 5.32229C18.3368 5.31813 17.7679 5.0622 17.3529 4.64738C16.9349 4.22889 16.6775 3.65444 16.6772 3.01644C16.6775 2.3782 16.9349 1.80376 17.3529 1.38527ZM15.9896 18.6338H6.01016C5.8498 17.2502 4.75493 16.1536 3.37211 15.9906V6.00942C4.75176 5.84687 5.84442 4.75469 6.00869 3.37578H15.9911C16.1553 4.75567 17.2495 5.84809 18.6301 6.00991V15.9903C17.2463 16.1522 16.1502 17.2495 15.9896 18.6338ZM0.709622 3.0162C0.709867 2.3782 0.967267 1.80376 1.38527 1.38527C1.80376 0.967267 2.3782 0.709867 3.0162 0.709622C3.6542 0.709867 4.22864 0.967267 4.64713 1.38527C5.05707 1.79593 5.31129 2.35693 5.32082 2.98051L5.31667 3.02084L5.32033 3.058C5.30909 3.67913 5.0556 4.23769 4.64689 4.64689C4.23207 5.06122 3.66373 5.31691 3.03233 5.3218L3.01718 5.32033L3.00104 5.32204C2.36891 5.31789 1.80009 5.06196 1.38502 4.64713C0.967267 4.22864 0.709867 3.6542 0.709622 3.0162ZM4.64713 20.6147C4.22864 21.0327 3.6542 21.2901 3.0162 21.2904C2.3782 21.2901 1.80376 21.0327 1.38527 20.6147C0.967267 20.1962 0.709867 19.6218 0.709622 18.9838C0.709867 18.3458 0.967267 17.7714 1.38527 17.3529C1.80376 16.9349 2.3782 16.6775 3.0162 16.6772C3.6542 16.6775 4.22864 16.9349 4.64713 17.3529C5.05707 17.7635 5.31129 18.3245 5.32082 18.9481L5.31667 18.9884L5.32033 19.0256C5.30909 19.6467 5.05584 20.2055 4.64713 20.6147ZM21.2904 18.9838C21.2901 19.6218 21.0327 20.1962 20.6147 20.6147C20.1962 21.0327 19.6218 21.2901 18.9838 21.2904C18.3458 21.2901 17.7714 21.0327 17.3529 20.6147C16.9349 20.1962 16.6775 19.6218 16.6772 18.9838C16.6775 18.3458 16.9349 17.7714 17.3529 17.3529C17.7714 16.9349 18.3458 16.6775 18.9838 16.6772C19.6218 16.6775 20.1962 16.9349 20.6147 17.3529C21.0327 17.7714 21.2901 18.3458 21.2904 18.9838Z" fill="black"/>
<path d="M14.5483 7.53906H7.45161C7.25557 7.53906 7.09668 7.69795 7.09668 7.894C7.09668 8.09004 7.25557 8.24893 7.45161 8.24893H10.645V14.991C10.645 15.187 10.8039 15.3459 11 15.3459C11.196 15.3459 11.3549 15.187 11.3549 14.991V8.24868H14.5483C14.7444 8.24868 14.9033 8.0898 14.9033 7.89375C14.9033 7.69771 14.7444 7.53906 14.5483 7.53906Z" fill="black"/>
</svg>
