<svg width="22" height="22" viewBox="0 0 22 22" fill="none" xmlns="http://www.w3.org/2000/svg">
<path d="M20.0179 0H1.98211L0 1.98211V7.45161V20.0179L1.98211 22H14.5484H20.0179L22 20.0179V1.98211L20.0179 0ZM0.709677 12.9211L5.4695 8.16129H9.07888L0.709677 16.5305V12.9211ZM0.709677 11.9176V8.16129H4.46598L0.709677 11.9176ZM0.709677 17.534L10.0824 8.16129H12.2724L12.9821 8.87097L1.41935 20.4337L0.709677 19.724V17.534ZM1.92112 20.9355L13.4839 9.37273L13.8387 9.72757V12.2724L4.82082 21.2903H2.27596L1.92112 20.9355ZM13.8387 16.5305L9.07888 21.2903H5.82434L13.8387 13.276V16.5305ZM10.0824 21.2903L13.8387 17.534V21.2903H10.0824ZM21.2903 19.724L19.724 21.2903H14.5484V9.43372L12.5663 7.45161H0.709677V2.27596L2.27596 0.709677H19.724L21.2903 2.27596V19.724Z" fill="black"/>
</svg>
