<svg width="28" height="25" viewBox="0 0 28 25" fill="none" xmlns="http://www.w3.org/2000/svg">
<path d="M12.624 2.49609C9.09119 2.49609 6.21713 5.37015 6.21713 8.90292C6.21713 12.4357 9.09119 15.3093 12.624 15.3093C16.1567 15.3093 19.0303 12.4357 19.0303 8.90292C19.0303 5.37015 16.1562 2.49609 12.624 2.49609ZM12.624 14.0607C9.77956 14.0607 7.46568 11.7468 7.46568 8.90292C7.46568 6.059 9.77956 3.74512 12.624 3.74512C15.4679 3.74512 17.7818 6.059 17.7818 8.90292C17.7818 11.7468 15.4679 14.0607 12.624 14.0607Z" fill="black"/>
<path d="M21.5271 8.90344C21.5271 3.99392 17.5328 0 12.6237 0C7.71419 0 3.71979 3.9944 3.71979 8.90344C3.71979 13.8125 7.71419 17.8064 12.6237 17.8064C17.5328 17.8064 21.5271 13.813 21.5271 8.90344ZM12.6237 16.5583C8.40256 16.5583 4.96881 13.1241 4.96881 8.90344C4.96881 4.68277 8.40304 1.24855 12.6237 1.24855C16.8449 1.24855 20.2791 4.68277 20.2791 8.90344C20.2791 13.1241 16.8449 16.5583 12.6237 16.5583Z" fill="black"/>
<path d="M20.325 14.8164L17.3821 17.7598L24.1592 24.5369L27.1021 21.594L20.325 14.8164ZM19.1477 17.7598L20.325 16.5821L25.3364 21.594L24.1592 22.7712L19.1477 17.7598Z" fill="black"/>
<path d="M11.203 5.37933C9.02358 6.34229 8.03383 8.89823 8.99631 11.0772C9.09964 11.3107 9.32782 11.4494 9.56748 11.4494C9.65168 11.4494 9.7373 11.4322 9.81958 11.3963C10.1348 11.2566 10.2779 10.8883 10.1387 10.5725C9.45411 9.02356 10.1583 7.20575 11.7077 6.5212C12.023 6.38152 12.166 6.01317 12.0268 5.69745C11.8871 5.38268 11.5183 5.2406 11.203 5.37933Z" fill="black"/>
<path d="M5.91846 19.9787H3.89687V17.9595C3.89687 17.6868 3.67586 17.4668 3.40558 17.4668C3.13291 17.4682 2.91333 17.6868 2.91333 17.9595V19.9787H0.893174C0.620024 19.9787 0.400452 20.1997 0.400452 20.4719C0.400452 20.7422 0.621459 20.9646 0.893174 20.9646H2.91333V22.9853C2.91333 23.2575 3.13291 23.477 3.40558 23.477C3.54096 23.477 3.66342 23.4216 3.75288 23.3331C3.84281 23.2431 3.89734 23.1216 3.89734 22.9848V20.9642H5.91894C6.05527 20.9642 6.17917 20.9082 6.26719 20.8197C6.35713 20.7302 6.41166 20.6068 6.41166 20.471C6.41071 20.1997 6.18922 19.9787 5.91846 19.9787Z" fill="black"/>
</svg>
