<svg width="26" height="24" viewBox="0 0 26 24" fill="none" xmlns="http://www.w3.org/2000/svg">
<path d="M20.982 8.90344C20.982 3.99392 16.9876 0 12.0786 0C7.16905 0 3.17465 3.9944 3.17465 8.90344C3.17465 13.8125 7.16905 17.8069 12.0791 17.8069C16.9881 17.8069 20.982 13.8125 20.982 8.90344ZM12.0791 16.5588C7.8579 16.5588 4.42416 13.1246 4.42416 8.90344C4.42416 4.68277 7.85838 1.24855 12.0791 1.24855C16.3007 1.24855 19.7339 4.68277 19.7339 8.90344C19.7339 13.1246 16.3002 16.5588 12.0791 16.5588Z" fill="black"/>
<path d="M12.079 2.49609C8.54666 2.49609 5.67261 5.37015 5.67261 8.90292C5.67261 12.4357 8.54666 15.3093 12.079 15.3093C15.6117 15.3093 18.4858 12.4357 18.4858 8.90292C18.4858 5.37015 15.6117 2.49609 12.079 2.49609ZM12.079 14.0607C9.23504 14.0607 6.92116 11.7468 6.92116 8.90292C6.92116 6.059 9.23456 3.74512 12.079 3.74512C14.9233 3.74512 17.2377 6.059 17.2377 8.90292C17.2377 11.7468 14.9229 14.0607 12.079 14.0607Z" fill="black"/>
<path d="M19.7802 15.7014L17.7198 17.7617L23.6136 23.6555L25.6739 21.5952L19.7802 15.7014Z" fill="black"/>
<path d="M10.2416 4.96136C9.1858 5.42778 8.37496 6.27688 7.9583 7.35322C7.54164 8.42955 7.56939 9.60348 8.03532 10.6592C8.13865 10.8927 8.36683 11.0314 8.6065 11.0314C8.69069 11.0314 8.77632 11.0142 8.8586 10.9783C9.17384 10.8386 9.31688 10.4703 9.17767 10.1546C8.84616 9.404 8.82655 8.56924 9.12266 7.80384C9.41877 7.03845 9.99569 6.43475 10.7462 6.10324C11.0615 5.96403 11.2045 5.59521 11.0653 5.27948C10.9256 4.96471 10.5563 4.82264 10.2416 4.96136Z" fill="black"/>
<path d="M5.29094 20.4707H1.17504C0.636868 20.4707 0.199158 20.9079 0.199158 21.4451C0.199158 21.9838 0.636868 22.422 1.17504 22.422H5.29094C5.54974 22.422 5.79419 22.3206 5.98171 22.135C6.1654 21.9513 6.26682 21.7063 6.26682 21.4451C6.26682 20.9079 5.82911 20.4707 5.29094 20.4707Z" fill="black"/>
</svg>
